<?xml version="1.0" encoding="utf-8"?>
<!-- Generator: Adobe Illustrator 19.2.0, SVG Export Plug-In . SVG Version: 6.00 Build 0)  -->
<svg version="1.0" id="Capa_1" xmlns="http://www.w3.org/2000/svg" xmlns:xlink="http://www.w3.org/1999/xlink" x="0px" y="0px"
	 viewBox="0 0 1000 1000" enable-background="new 0 0 1000 1000" xml:space="preserve">
<g>
</g>
<path display="none" d="M513.9,23.4c257.3-1.1,467.1,210,467.1,466.8c0,257-210.1,467.4-467.7,467.1
	C256.3,957,45.9,746.4,46.8,488.3C47.8,232.5,257.1,22.3,513.9,23.4z M513.5,930.7C755.6,931.1,954,734,954.4,490.8
	c0.4-242-196.5-440.6-439.8-441C272.3,49.3,73.9,246.5,73.4,489.3C72.9,732.3,270.6,930.6,513.5,930.7z"/>
<path fill="#FFFFFF" d="M343.6,552.8c-5.4,7.3-9.2,13.1-13.5,18.4c-28.4,34.8-65.4,46.8-108.9,39.7c-27.9-4.5-45.9-22.3-57.7-47
	c-9.6-20.1-12.5-41.8-12.4-63.6c0.2-31.6,5.1-62.6,18.8-91.4c20.1-42.2,48.9-75.4,96.8-85.5c30.9-6.6,61.9-6.7,89.6,12.8
	c7.1,5,6.3-2.2,6.5-5.3c1.5-16.5,2.8-33,3.8-49.5c1.5-24.9,2.8-49.9,3.8-74.8c0.3-7.2,2.8-10.3,10.4-10.3
	c19.4-0.2,38.9-1.2,58.3-1.6c10.3-0.2,10.6,0.3,9.2,10.1c-5.8,40.2-14,80-18.8,120.4c-4.6,38.6-9,77.2-11.5,116
	c-2.6,38.9-3.8,77.7-3.1,116.7c0.2,13.1,0.9,26.1,1.7,39.2c0.4,6.6-1.9,9.7-8.6,9.9c-17.1,0.6-34.2,1.3-51.3,2.2
	c-6,0.3-9.1-1.5-9.5-8.1C346.5,585.8,345,570.5,343.6,552.8z M226.8,488.5c1.2,11.2,1.3,25.2,5.9,38.6c6.6,19.2,18.4,28.7,38.5,29.6
	c14.6,0.7,26.5-5.9,36.5-15.8c13.8-13.7,23.3-30.3,31.3-47.9c14.5-32,14.4-66.6,18.9-100.5c0.6-4.4-2.6-6-5.7-7.7
	c-11.5-6.4-24.1-8.9-36.9-9c-26.9-0.3-50.2,8-66.1,31.6C233.3,431.2,227.5,457.9,226.8,488.5z"/>
<path fill="#FFFFFF" d="M565.2,605.7c-35.7,0-71.5-0.2-107.2,0.2c-7.9,0.1-10.2-2.2-9.2-9.9c5.1-38.3,9.9-76.5,14.6-114.8
	c5-41.2,10-82.4,13.5-123.7c3.3-40.2,6.7-80.4,7.1-120.8c0.1-6.7,2.6-9,9.4-9c70,0.2,140.1,0.2,210.1,0c5.6,0,9,0.9,7.9,7.6
	c-2.6,17.2-4.9,34.5-7.3,51.7c-0.7,5.3-4.1,6.5-8.7,6.2c-9.3-0.6-18.5-1.3-27.8-1.6c-34.8-1.1-69.7-2.1-104.5-3.3
	c-6.3-0.2-8.5,1.6-9,8.2c-1.7,25.2-4,50.3-6.3,75.5c-0.8,8.7,0.1,9.8,10.7,9.1c32.8-2.1,65.6-0.6,98.4-3c13.1-0.9,13.7,0.5,12,13.7
	c-1.7,13.2-3.4,26.5-4.5,39.8c-0.5,6.4-3.3,8.7-9.4,8.2c-33-2.7-66.2-0.8-99.3-3c-14.2-0.9-14.3-0.8-15.6,13.4
	c-2.7,28.9-5.3,57.8-8.2,86.7c-0.7,6.8,1.9,8.6,8.3,8.4c39.5-1.3,79-2.2,118.4-3.4c9-0.3,18-1,26.9-1.6c4.6-0.3,7.4,1,6.6,6.3
	c-2.6,18.1-5.1,36.2-7.8,54.3c-0.9,6.2-6.1,5.1-10.3,5.1C637.9,605.8,601.5,605.7,565.2,605.7z"/>
<path fill="#FFFFFF" d="M805.3,378.6c4.6-2.3,5.9-6.7,8.3-10.1c26.5-38.4,63.8-52.8,108.9-47.6c34.6,4,55,27.7,59.4,64
	c3.4,27.5-0.3,54.5-2.8,81.6c-3.9,43.3-10.1,86.5-11.2,130.1c-0.2,7.1-2.7,10-9.6,10.2c-19.7,0.6-39.5,1.3-59.2,2.2
	c-6.6,0.3-8.4-2.1-7.8-8.7c3-37.1,9.5-73.7,13.6-110.6c3.1-28,6.7-55.9,3.3-84.2c-3.6-30.2-31.5-33.8-50.4-26
	c-9.9,4.1-17.5,11.4-24.2,19.5c-22.6,27.1-33.2,58.9-36.7,93.4c-3.6,35.2-7.2,70.4-8.9,105.8c-0.3,5.9-3.1,8.3-8.7,8.5
	c-19.7,0.7-39.5,1.4-59.2,2.2c-5.7,0.2-7.5-1.9-6.8-7.9c4.9-38.3,9.6-76.6,13.9-114.9c5.5-48.9,7.6-97.8,1.4-146.8
	c-0.8-6.5,1.2-9.3,7.3-9.9c19.1-1.8,38.1-3.7,57.2-5.7c6.2-0.6,8.6,1.6,9.2,8.1c1.2,12.5,1.3,24.9,1.5,37.4
	C804,372.3,803.2,375.6,805.3,378.6z"/>
<path fill="#FFFFFF" d="M96.2,227.7c10.7,0,21.5,0.3,32.2-0.1c6.5-0.2,8.7,1.7,7.7,8.5c-4.2,30.2-8,60.4-11.6,90.6
	c-4.6,38.6-9.1,77.2-13.1,115.8c-5.3,51.7-8.6,103.5-10.5,155.4c-0.2,5.4-2.2,7.9-7.8,7.8c-22.7-0.2-45.3-0.2-68,0
	c-6,0-7.6-2.8-6.9-8.1c4.9-37.1,9.8-74.2,14.4-111.3c4.9-39.7,9.9-79.4,13.4-119.3c3.6-41.9,6.8-83.9,7.5-126
	c0.2-13.4,0.7-13.4,13.9-13.4C77,227.7,86.6,227.7,96.2,227.7z"/>
<path fill="#FFFFFF" d="M583.8,699.7c0,7-0.4,14,0.1,20.9c0.6,10.4-6.5,8.6-12.8,9c-6.8,0.4-9-2.2-9-9c0-12.1,2.7-24.2,0.4-36.4
	c-1.6-8.2-5.9-12.6-13.1-12c-7.9,0.7-11.7,4.6-11.3,13.1c0.6,11.6-0.2,23.2,0.4,34.8c0.5,9-4.4,9.6-11.4,9.6
	c-6.7,0-11.1-0.6-10.5-9.3c0.8-11.6,0.7-23.2,0.5-34.8c-0.2-9.9-4.4-13.8-13.1-13.5c-8.8,0.3-12.3,4.2-12.3,13.9
	c0,11.6-0.4,23.2,0.2,34.8c0.6,10.8-6.7,8.3-12.8,8.8c-6.7,0.5-9.9-1.9-9.1-8.9c2.3-19.4,1.9-38.8-1.4-58.1
	c-0.4-2.4-0.3-5.3,2.7-5.4c6.4-0.2,14.1-7,18.6,3.5c1.1,2.6,2.8,0.6,4.2-0.2c13-7.4,25.7-8.5,38,1.3c2.8,2.3,4.8,0.4,6.9-1.1
	c4.1-2.8,8.7-4.8,13.6-5.5c20.4-2.9,30.9,6.3,31.1,27C583.9,688.1,583.8,693.9,583.8,699.7z"/>
<path fill="#FFFFFF" d="M712,682.4c-4.3,13.5-8.8,26.8-12.6,40.4c-1.5,5.4-4.2,7.1-9.3,6.7c-4.9-0.4-10.3,1.6-12.7-5.7
	c-6.2-19-13.2-37.8-19.7-56.8c-3.2-9.4-2.7-10.1,6.7-10.2c13.3-0.2,13.3-0.2,16.8,12.8c3.1,11.5,6.4,22.9,9.9,35.7
	c4.5-14,9-26.9,12.6-40.1c1.8-6.6,5.2-8.6,11.7-8.5c6.4,0.1,10.1,1.5,11.8,8.4c3.3,12.9,7.5,25.5,12.2,40.8
	c4.3-15.2,8-27.9,11.5-40.6c2-7.3,12.8-11.8,19.2-7.7c3.5,2.2,1.5,5.4,0.6,7.8c-5.5,15-11.3,29.9-17,44.8c-1.2,3.3-2.9,6.5-3.4,9.9
	c-1.3,7.8-5.6,9.9-13.3,9.9c-8.3,0.1-9.1-5-10.9-10.7c-3.8-12.3-8.1-24.5-12.1-36.8C713.2,682.4,712.6,682.4,712,682.4z"/>
<path fill="#FFFFFF" d="M182,717.5c-0.1-15.9,0.9-31.9-1.5-47.8c-0.5-3.4-3-8.5,1.1-10.4c5.3-2.4,12-4.7,17.4-0.9
	c3.1,2.2,4.5,2,7.3,0.5c12-6,24.3-6.5,35.3,1.8c11.1,8.3,15,20.6,13.3,34c-3.5,28.1-18.2,38.9-46.7,35c-3.8-0.5-4.7,0.7-4.7,3.9
	c0,5.8,0,11.6,0,17.4c0,11.5-0.2,11.1-11.6,11.7c-9.1,0.5-10.6-3.6-10.2-11.4C182.4,740.2,182,728.9,182,717.5z M232.9,691.4
	c0.4-7.4-1.9-14.6-9.5-19.1c-6-3.6-11.8-1.9-17.4,0.9c-5.4,2.7-2.9,7.4-2.7,11.6c0.2,6.7,0.3,13.3,0.4,20
	c0.2,8.7,4.6,12.4,13.3,11.1C227.2,714.4,232.9,706,232.9,691.4z"/>
<path fill="#FFFFFF" d="M174,700.1c0,6.1,0,12.2,0,18.3c0,11.2-0.4,10.9-13,11.3c-10,0.3-8.9-5.9-8.4-12c0.7-10.1,2.2-20.3,1.1-30.4
	c-1.4-13.5-9-18-21.7-13.5c-4.8,1.7-6.9,4.6-6.8,9.7c0.3,12.8-0.1,25.6,0.4,38.3c0.2,6.3-2.1,7.9-8,7.9c-13.8-0.1-14.5-0.2-13.5-14
	c2.1-28.2,1.2-56.3-0.9-84.3c-0.9-11.8,6.8-8.5,12.8-9.3c7.3-1,9.9,2,9.5,9.2c-0.5,8.4-0.2,16.8-0.3,25.3c0,3.9,1.4,5.6,5.2,3.1
	c3.5-2.2,7.2-3.7,11.3-4.3c21.7-3.2,32.5,6.2,32.4,28.3C174,689.1,174,694.6,174,700.1C174,700.1,174,700.1,174,700.1z"/>
<path fill="#FFFFFF" d="M30.2,679.9c0-13.4,0.2-26.7-0.1-40.1c-0.2-6.5,1.6-9.6,8.7-9.3c11.3,0.4,22.6-0.1,34,0.2
	c15.2,0.4,27.3,8.8,29.6,19.9c3.2,15.9-3.5,29.8-18.1,36.8c-7.4,3.5-15.3,5.9-23.5,5.4c-7.3-0.5-9.2,2.7-8.7,9.3
	c0.6,6.3,0.7,12.7,1.1,19.1c0.4,5.7-1.5,9-7.8,8.4c-2.6-0.2-5.2-0.2-7.8,0c-5.8,0.4-7.7-2.4-7.5-7.8c0.3-7,0.2-13.9,0.2-20.9
	c0-7,0-13.9,0-20.9C30.3,679.9,30.3,679.9,30.2,679.9z M60.9,645.8c-7-0.8-10.7,3.3-8.7,10.3c2.1,7.2-7.1,19.1,6.3,21.2
	c13,2.1,22.3-5.8,22.5-15.8C81.4,651.3,74.7,645.9,60.9,645.8z"/>
<path fill="#FFFFFF" d="M924,681.1c6.4-4.9,10.8-11.8,15.7-18c4.1-5.2,18.7-8.8,24.4-5.9c3.5,1.8,1.2,4,0,5.6
	c-5.1,6.7-11,12.8-17.7,18c-4.2,3.3-4.6,5.7-0.7,9.6c8.8,8.6,15.1,19.1,21.9,29.2c1.6,2.3,4,4.9,2.7,7.9c-1.4,3.4-5.1,1.7-7.7,2.2
	c-10.1,1.8-16.8-1.9-21.6-11.3c-4.2-8.1-9.9-15.6-17.6-22.9c-1.8,9.4-1.3,17.7-0.6,25.9c1,10.8-6.3,7.8-11.8,8.3
	c-6.7,0.6-10.6-1.3-9.8-9c2.1-19.7,1-39.4,1-59.2c0-10.1-0.8-20.3-1.6-30.4c-0.5-6.5,2.1-9.2,8.4-8.8c2.3,0.1,4.7,0,7-0.2
	c5.2-0.5,7.1,1.5,6.9,7c-0.5,15.7-0.4,31.4-0.4,47C922.5,677.6,921.8,679.5,924,681.1z"/>
<path fill="#FFFFFF" d="M769.6,694.3c0-23.2,16.1-39.2,39.3-39.3c22.4-0.1,37.9,14.9,37.8,36.5c-0.1,23.3-16.7,39.7-40.4,39.7
	C783.7,731.2,769.6,717.1,769.6,694.3z M825.4,693.5c-1.1-4.2-1.7-8.6-3.3-12.5c-2.6-6.4-7.6-10.6-14.6-10.5
	c-7,0.1-12.1,4.3-14.5,10.7c-2.9,8.1-2.9,16.5,0.7,24.5c2.8,6.2,7.8,10.4,14.9,10.1c7-0.3,11.6-5,14.1-11.2
	C824.2,701.2,824.6,697.3,825.4,693.5z"/>
<path fill="#FFFFFF" d="M628.7,731.2c-17.1,0.7-30.8-4.4-38.7-20.1c-7.1-14.1-4.1-33.5,6.9-45.5c9.6-10.5,28.6-14.1,42.8-8.2
	c11.9,4.9,19.7,21.9,15.9,34.4c-1.3,4.2-4.4,4.1-7.5,4.2c-10.7,0.2-21.5,0.2-32.2,0.4c-2.2,0-5-0.8-6.4,1.6c-1.6,2.8,0.5,5,2.1,7
	c6.1,8,14.6,9.9,24,9c2.9-0.3,5.7-1.5,8.6-1.3c3.4,0.2,8.2-4.8,10.2,1.8c2,6.9-1.6,13-8,14.8C640.4,731,634.4,731.5,628.7,731.2z
	 M620.7,684.7c2,0,4.1,0.1,6.1,0c3.6-0.3,8.6,0.6,9.1-4.2c0.5-4.8-3.1-7.7-7.8-9.2c-3.2-1-6.3-1.5-9.3-0.2c-5,2-10.5,5-9.5,10.8
	c0.9,5.2,6.9,1.9,10.5,2.8C620.1,684.7,620.4,684.7,620.7,684.7z"/>
<path fill="#FFFFFF" d="M286.7,680.2c0-13.7,0.2-27.3-0.1-41c-0.2-6.4,2.1-8.8,8.5-8.7c15.7,0.3,31.4,0.3,47.1,0
	c6-0.1,8.4,2.1,8.1,8.2c-0.2,5.7-0.5,10.7-8.2,10.2c-8.4-0.5-16.8-0.8-25.2-1.5c-6.2-0.5-8.8,1.6-8.8,8.3c0,19.5,1.6,21.2,22.3,17.9
	c7.1-1.1,11.2-0.6,11.2,8c-0.1,7.3-2.3,9.6-10,8.4c-23-3.6-23.2-3.2-23.1,20.1c0,2.6,0,5.2,0.1,7.8c0,11.6,0,11.2-11.5,11.7
	c-7.8,0.3-11-2-10.6-10.3C287.1,706.3,286.7,693.2,286.7,680.2z"/>
<path fill="#FFFFFF" d="M463.2,701.3c0.3,7.2,0.3,14.5,1.1,21.7c0.5,4.6-0.9,6.9-5.4,6.4c-4.8-0.6-10.2,3.3-14.7-2.1
	c-1.3-1.6-3.8,0.4-5.6,1.1c-5.7,2.4-11.7,3-17.9,2.8c-9.3-0.3-16.5-4.2-19.7-13c-3.1-8.6-0.8-16.6,5.6-23.2
	c7.7-7.8,17.8-9,27.9-10.3c3.1-0.4,8,1.6,8.4-3.6c0.4-4.8-2.5-8-7.3-9.5c-8.1-2.7-16-0.8-24,0.3c-2.7,0.4-6.9,3.2-7.8-1.9
	c-0.8-4.7-1.5-10.9,4.8-12.4c13.6-3.4,27.6-4.5,41.2,0c9.4,3.1,13.2,10.9,13.6,20.3c0.3,7.8,0.1,15.7,0.1,23.5
	C463.5,701.3,463.3,701.3,463.2,701.3z M443.5,704.7c0-7.3-0.8-8.3-5.8-8.1c-10.9,0.5-18,5.2-17.6,11.8c0.4,6.8,5.6,7.5,10.7,7.6
	C439.9,716.1,443.5,712.7,443.5,704.7z"/>
<path fill="#FFFFFF" d="M372.4,662.7c6.9-6.7,14.7-8.9,23.5-7.3c4.6,0.8,7.9,2.9,5.9,8.2c-1.7,4.5,0.3,12-8.9,11
	c-15.4-1.7-19.8,2.5-19.8,18c0,9.9-0.3,19.7,0.2,29.6c0.3,5.9-2,7.9-7.5,7.3c-2-0.2-4.1-0.2-6.1,0c-6,0.5-8.1-1.9-7.7-8.2
	c1.4-18.8,1.8-37.6-1.1-56.3c-0.5-3.1-2.8-7.6,3-8.1c5.7-0.5,12.3-5.8,17,2.1C371.4,660,371.7,661.1,372.4,662.7z"/>
<path fill="#FFFFFF" d="M871.8,662.3c6.5-6.4,14.3-8.4,23.1-6.8c4.7,0.9,7.8,3.1,5.7,8.3c-1.8,4.5,0.2,11.9-8.9,10.9
	c-14.9-1.8-19.7,2.6-19.7,17.2c0,10.1-0.2,20.3,0.2,30.4c0.2,5.1-1.2,7.7-6.7,7.2c-2.9-0.2-5.8-0.1-8.7-0.1
	c-4.5,0.1-6.2-2.1-5.9-6.5c1.4-20.3,2-40.5-1.5-60.6c-0.3-1.7-0.5-3.4,1.1-4.8C855.9,653,868,655.4,871.8,662.3z"/>
</svg>
